PathFileType	4	(X/Y/Z)	46_1_8_p0_0-204_filt_butterworth.trc
DataRate	CameraRate	NumFrames	NumMarkers	Units	OrigDataRate	OrigDataStartFrame	OrigNumFrames
48.0	48.0	7	27	m	48.0	76	204
Frame#	Time	RHip			RKnee			RAnkle			RBigToe			RSmallToe			RHeel			LHip			LKnee			LAnkle			LBigToe			LSmallToe			LHeel			Neck			Head			Nose			RShoulder			RElbow			RWrist			RThumb			RIndex			RPinky			LShoulder			LElbow			LWrist			LThumb			LIndex			LPinky			
		X1	Y1	Z1	X2	Y2	Z2	X3	Y3	Z3	X4	Y4	Z4	X5	Y5	Z5	X6	Y6	Z6	X7	Y7	Z7	X8	Y8	Z8	X9	Y9	Z9	X10	Y10	Z10	X11	Y11	Z11	X12	Y12	Z12	X13	Y13	Z13	X14	Y14	Z14	X15	Y15	Z15	X16	Y16	Z16	X17	Y17	Z17	X18	Y18	Z18	X19	Y19	Z19	X20	Y20	Z20	X21	Y21	Z21	X22	Y22	Z22	X23	Y23	Z23	X24	Y24	Z24	X25	Y25	Z25	X26	Y26	Z26	X27	Y27	Z27	
76	1.5833333333333333	0.4452701066219207	0.2309782825392134	0.6236241095545252	0.4144107584473753	0.3034980532429816	1.0522761335903486	0.40161117965701376	0.3833370762768843	1.488303078454064	0.41791488895084017	0.2423604080007094	1.5300899392534646	0.46603023566762414	0.2752387656141265	1.5251908817325788	0.37309205615139773	0.4422778782138955	1.5419010895953091	0.26719100914086	0.26076277943467363	0.643593372725928	0.2500636376986701	0.3263602627245304	1.0647808065391156	0.2213387113853781	0.3949914481681855	1.4633829494337511	0.19296868557360092	0.25662120301138314	1.5138929102406402	0.16119876207503198	0.28825023606525146	1.4849262450816658	0.22649961432830534	0.42910391831799244	1.494165900907226	0.3593558765244462	0.2235492023440937	0.12389630874408804	0.3547122123372229	0.11209046764226414	-0.1228446169892923	0.3263306653893143	0.08223321448114503	0.007243931226410962	0.5132532151118518	0.1976913337365556	0.17062616433158864	0.4680743462480572	0.03262688968397744	0.3412747813114392	0.34245294611971017	0.02040474000903118	0.1889660560618195	0.27318684771735763	0.02138788467764539	0.11845675990165608	0.24518849964546557	-0.0017191530883538793	0.09186194624498963	0.2428079211938008	2.5508909210959167e-05	0.13963675197179115	0.21991010851988202	0.3340477656810788	0.2036949059797093	0.179494395962283	0.25635671469812366	0.4524910805434139	0.1590474350102017	0.17944975468942986	0.6631519403431994	0.16707172861981964	0.15450850541954078	0.7591335702361843	0.14662238537614852	0.13730219074529434	0.8005914653210146	0.13284370023977154	0.17122812611312194	0.7937059374409139
77	1.6041666666666667	0.44514118954347337	0.23135346847440283	0.6228319969161227	0.41437266069948775	0.30347076331572986	1.053870832989444	0.40146940450123314	0.38384963772852965	1.4878555799254785	0.4195830137382336	0.2426480985515977	1.5296600545623042	0.46844819890072925	0.2748324032417216	1.525679172345611	0.3730754556733643	0.44149571914121977	1.542303091573777	0.2680640983966412	0.2615224329293245	0.6435114838134577	0.25087842970525803	0.3193127199982948	1.0629504137643935	0.22106763496672366	0.3950722424087846	1.4646247824195746	0.1929243579666201	0.256439834726075	1.513396915095556	0.1611531866844674	0.2884546356140834	1.4847377349020945	0.22648403524612182	0.4291976605339396	1.4942333312921996	0.3614932166914714	0.22694032931045569	0.12794538503665598	0.3568572867579185	0.10469538726565375	-0.11868311165766898	0.32566656824284645	0.0818569022621791	0.018382580578749582	0.5133789123467308	0.19772198646258615	0.17053930281762067	0.4638167425688356	0.027725312444758773	0.334533008886047	0.3410684104125805	0.016247786627723207	0.17557595159509815	0.270503244375159	0.020218541867655947	0.10826519362532887	0.24860036279201284	-0.006415112350901409	0.07762243426970905	0.2527203775762022	-0.016775842753503713	0.12621336838566394	0.219696059978188	0.33446532002112594	0.20338237405447582	0.17950187924094835	0.2563443668316847	0.4545465741732978	0.16047236454246985	0.18023298606406124	0.6632067425593877	0.1700240746710689	0.15048446434923832	0.7592459656301491	0.14926024430630636	0.13748143415012273	0.8024593101118573	0.13677645842147385	0.16664559802100118	0.7941068962465138
78	1.625	0.44507231207339376	0.2319412940710172	0.6220586914954327	0.4153723534840235	0.3037990481298677	1.0550061418112873	0.4012649165155313	0.38426050715483917	1.4859716864833474	0.42008049605295444	0.24320124482788588	1.529622006284924	0.4690469226769726	0.2748940315402684	1.526406279633767	0.3729722866081311	0.4418408866801421	1.5445530924090454	0.26956159383755735	0.26242827895288834	0.643978686884829	0.2528124866691327	0.31329081678174797	1.06157621329555	0.22065701741775248	0.39521931063132804	1.4664085948252712	0.1929641666963075	0.2564608420752878	1.5115541276165	0.16112510000363245	0.2886125448839485	1.4849363865098417	0.22648912973926227	0.429281934722362	1.49426207056833	0.3638114858556178	0.23315014579176838	0.1314554194664215	0.35810034160108506	0.10017148454364483	-0.11560091684779863	0.3243155632251325	0.08099242602559797	0.02777266531827127	0.5134511313675529	0.19768058684146383	0.16932249601608493	0.4595414769157723	0.02527018837813596	0.3281199116015615	0.3398831897251917	0.014294651792238443	0.16365285160661325	0.2693130663827352	0.019409929121238817	0.09557312480621555	0.2512475713391052	-0.013495039646114164	0.06646976653971845	0.2587798637886873	-0.028495138973334125	0.11114576913369326	0.2196178323306792	0.33380595575101935	0.20232607853616172	0.17950398731953104	0.25635907305175876	0.4558434604599667	0.1618097198001668	0.1812070157584065	0.6632544582351065	0.17539037051837109	0.14397793032540657	0.7579760016565829	0.15303970015439805	0.13547907976333687	0.8036783895874564	0.14154353699133065	0.16077111952576517	0.7928682363664927
79	1.6458333333333333	0.4450542441194604	0.2323953280916717	0.6218782441572004	0.41710049867609167	0.3044355481789003	1.0554415462458362	0.40112333771328157	0.38437342738997193	1.4846410800246983	0.41998513022064804	0.24336469175361902	1.529724515406608	0.46894651254802655	0.27525057658010527	1.527527753396535	0.3730105252529837	0.4421229169059122	1.5483968163643014	0.27057355802144584	0.2631815963935489	0.6454944733816006	0.2541604557354409	0.31009624256549656	1.0614745559501817	0.22039436256367137	0.395284112746989	1.467585339888872	0.1930715465821708	0.2565573343741399	1.5092731129923005	0.16112224155123542	0.288627836190802	1.4849900587061562	0.22650297883813297	0.42934130934206105	1.4942628207009347	0.36526974344416263	0.23872224868439265	0.1336356061253242	0.3577763871634303	0.0977875400210203	-0.114482028950406	0.3241686950110769	0.08037627966136444	0.03295119017264662	0.5134265927890368	0.1975407988847379	0.1668466202859214	0.45685888998908036	0.02495203345877107	0.3219662814831342	0.3394496779777229	0.014718080716539666	0.15567819072752573	0.27019880093948684	0.019946059135529826	0.08550002870692561	0.2521572718317354	-0.013685290052362896	0.060881965118893	0.261837074356822	-0.028261634630270864	0.09976591988154895	0.21975051449330663	0.3334954212871076	0.20086629007318021	0.17946611168408588	0.25643941714344076	0.4555536008989487	0.16293554226762047	0.18269239254031444	0.6631670578507033	0.18188624918558213	0.1353674991119325	0.7536802327446599	0.15745502931780211	0.13179017138131507	0.8027482431279029	0.14528050647681923	0.15565665693162228	0.7890882340378945
80	1.6666666666666667	0.44497568080901284	0.2326663115743599	0.6220429461442174	0.41833585871268164	0.3049435403494868	1.0555910511860391	0.40113147461894966	0.3843475280491693	1.4842570076699757	0.4197809466810327	0.2432132997157323	1.5297283667223285	0.46896938357951845	0.275606873335306	1.528689905753478	0.37333641672180096	0.4422707861951576	1.5508682769783626	0.2706724482842244	0.2637473779724389	0.646949755665305	0.25431075200727404	0.3096629142581236	1.0621628234492053	0.22036040225810566	0.3952549059986957	1.4677615390528505	0.19315627272588626	0.2567200141242858	1.5076711588748177	0.16114883964028692	0.2885822503875327	1.4849076770069858	0.2265334346235893	0.4293937054738418	1.4941729174977976	0.36579248621116633	0.24146482105412403	0.13424874406045167	0.35583906857502856	0.09635151149276891	-0.11456848775295021	0.3252356324551138	0.07990229401574317	0.0353979764827573	0.5133854955080714	0.19757271353539468	0.16437292596936215	0.4559526849289857	0.025278630584166056	0.3166274001949343	0.34019311660697904	0.017729150089254436	0.15161122851650813	0.2721468921400166	0.024129569498548553	0.08173466384228249	0.25256542911402813	-0.0007590054230756649	0.060631547277321514	0.26439807247160396	-0.017105384170442252	0.09500862660686875	0.21965987634986364	0.33362263109409285	0.19986130325947246	0.17929664821391333	0.2564392413589544	0.4531797668340965	0.16370065165333014	0.18588374318148768	0.6629617778038628	0.18826395802298654	0.12511410500422065	0.7465574940261043	0.16141264180342973	0.12943771407383592	0.8000088205198884	0.14774033657372448	0.15321048580745197	0.7840195469836806
81	1.6875	0.44467048327937103	0.23303892604914497	0.621559480222498	0.4187022573678711	0.30504770502895207	1.0553004734605964	0.4011910794411463	0.3843203436961523	1.4842594902427773	0.41963321181041335	0.2430480036317083	1.5296956225147273	0.4690834737375662	0.27576050599779733	1.529257820398472	0.3737525399480317	0.4423865800587747	1.5497546798518724	0.2704341147312957	0.2640483115336378	0.6461241450903511	0.25407935157274536	0.3101268304802703	1.0625828991681476	0.22040433401840978	0.395232106266222	1.4675299275232399	0.1931575758943428	0.2570983853576636	1.5070029932016022	0.161262564887175	0.2883544013896585	1.484734373952126	0.2266052850827966	0.42937733044463877	1.4939706756889535	0.36582668985034195	0.24173597798482366	0.1340944386842245	0.352948876114318	0.09534562235037622	-0.11447151570796359	0.325475865778966	0.07905783989453619	0.03631010200845081	0.5134654498572859	0.19800190818423946	0.16316853705339177	0.45591740561151184	0.025332869989516803	0.31374024383839877	0.34269955776872796	0.02343126913843835	0.15071219339494324	0.2735017671213476	0.030817617869302073	0.08270181702383002	0.25408313161895546	0.016629837319277516	0.06254167263593383	0.26752445366585775	-0.0027649395611751984	0.09505210232176484	0.21848201998707487	0.33374809707911146	0.1994620702071964	0.1791058597660333	0.25626848512471884	0.4497906361336579	0.16436946033034625	0.19026635641579195	0.6628074840966418	0.19333497914283565	0.11568692865511013	0.7397107874809056	0.16486713619960117	0.12882762646716325	0.7967906739771412	0.14932517694017364	0.15310284930047657	0.779674509005709
82	1.7083333333333333	0.4443717859349635	0.2335264710475289	0.619661622899196	0.4187686024426939	0.30471281397555217	1.053933943451872	0.40116764881055056	0.38423655555224123	1.4848087637541056	0.41995664559343576	0.24318158514524238	1.5299138983350082	0.4690941174239134	0.2756370590200112	1.5289368986825227	0.3735310547471036	0.44212937012173004	1.5466846026317134	0.27037747475019513	0.264094508632831	0.642833378396465	0.2540232547551515	0.31034639708482636	1.0626040468627258	0.22041879104413875	0.395257135119518	1.4674032151092682	0.1930916551175492	0.2578373308647597	1.5063690298593175	0.16143240765716538	0.28799177871625914	1.4844641312793232	0.22676772715537463	0.4290785025842173	1.4936817915683995	0.3658456942786769	0.2413210349270411	0.13395028223764543	0.350302516911161	0.09394309114830035	-0.1137113139403878	0.3242303720624639	0.07835374806921222	0.0359505456682613	0.5136860758573831	0.1984390025446845	0.16308210323918088	0.4559973010111802	0.02517792362587924	0.31327338535981997	0.3470630599063824	0.030919197508010463	0.1516521473389965	0.2730650312081075	0.03517066087638435	0.0845032515634406	0.25781255291234156	0.025820466377759	0.06319626002402128	0.27256711974652414	0.009067396752359914	0.09556221329329473	0.2159212073835737	0.3332180844778376	0.19919072176872613	0.17909542633401848	0.2558606251191522	0.4474689494282912	0.16499228713234754	0.19416772127049758	0.6630260854472482	0.19731922610930983	0.10979128881150924	0.7369032389410187	0.16900197674145448	0.12697183148718869	0.7943805270577513	0.15001955760244418	0.15326323489099433	0.7778006464885879
